<?xml version="1.0" encoding="utf-8"?>
<svg width="586px" height="611px" viewBox="0 0 671.301 700" version="1.1" xmlns="http://www.w3.org/2000/svg">
  <title>logo</title>
  <desc>Created with Sketch.</desc>
  <g id="Page-1" stroke="none" stroke-width="1" fill="none" fill-rule="evenodd" transform="matrix(1, 0, 0, 1, 43.100513, 44.5)">
    <g id="logo">
      <path d="M50.7,370 C54.7,370 58,371.4 60.8,374.2 C63.6,377 65,380.4 65,384.3 L65,433.9 L14.3,433.9 C10.3,433.9 7,432.5 4.2,429.7 C1.4,426.9 0,423.5 0,419.6 L0,396 L53.1,396 L53.1,384.3 C53.1,383.6 52.9,383.1 52.4,382.6 C51.9,382.1 51.4,381.9 50.7,381.9 L0,381.9 L0,370 L50.7,370 Z M53.1,422 L53.1,407.9 L11.9,407.9 L11.9,419.6 C11.9,420.3 12.1,420.8 12.6,421.3 C13.1,421.8 13.6,422 14.3,422 L53.1,422 Z M167.8,370 L180.5,370 L156.5,433.9 L146.8,433.9 L125.3,386.4 L105,433.9 L104.8,433.8 L104.9,433.9 L95.3,433.9 L70.2,370 L82.8,370 L100.1,412.4 L118.5,370 L132.1,370 L151.6,412.4 L167.8,370 Z M235,370 C239,370 242.3,371.4 245.1,374.2 C247.9,377 249.3,380.4 249.3,384.3 L249.3,407.9 L196.2,407.9 L196.2,419.6 C196.2,420.3 196.4,420.8 196.9,421.3 C197.4,421.8 197.9,422 198.6,422 L249.3,422 L249.3,433.9 L198.6,433.9 C194.6,433.9 191.3,432.5 188.5,429.7 C185.7,426.9 184.3,423.5 184.3,419.6 L184.3,384.3 C184.3,380.3 185.7,377 188.5,374.2 C191.3,371.4 194.7,370 198.6,370 L235,370 Z M196.2,396 L237.4,396 L237.4,384.3 C237.4,383.6 237.2,383.1 236.7,382.6 C236.2,382.1 235.7,381.9 235,381.9 L198.6,381.9 C197.9,381.9 197.4,382.1 196.9,382.6 C196.4,383.1 196.2,383.6 196.2,384.3 L196.2,396 Z M325.2,384.4 L325.2,386.8 L313.3,386.8 L313.3,384.4 C313.3,383.7 313.1,383.2 312.6,382.7 C312.1,382.2 311.6,382 310.9,382 L274.5,382 C273.8,382 273.3,382.2 272.8,382.7 C272.3,383.2 272.1,383.7 272.1,384.4 L272.1,393.7 C272.1,394.4 272.3,394.9 272.8,395.4 C273.3,395.9 273.8,396.1 274.5,396.1 L310.9,396.1 C314.9,396.1 318.2,397.5 321,400.3 C323.8,403.1 325.2,406.5 325.2,410.4 L325.2,419.7 C325.2,423.7 323.8,427 321,429.8 C318.2,432.6 314.8,434 310.9,434 L274.5,434 C270.5,434 267.2,432.6 264.4,429.8 C261.6,427 260.2,423.6 260.2,419.7 L260.2,417.3 L272.1,417.3 L272.1,419.7 C272.1,420.4 272.3,420.9 272.8,421.4 C273.3,421.9 273.8,422.1 274.5,422.1 L310.9,422.1 C311.6,422.1 312.1,421.9 312.6,421.4 C313.1,420.9 313.3,420.4 313.3,419.7 L313.3,410.4 C313.3,409.7 313.1,409.2 312.6,408.7 C312.1,408.2 311.6,408 310.9,408 L274.5,408 C270.5,408 267.2,406.6 264.4,403.8 C261.6,401 260.2,397.6 260.2,393.7 L260.2,384.4 C260.2,380.4 261.6,377.1 264.4,374.3 C267.2,371.5 270.6,370.1 274.5,370.1 L310.9,370.1 C314.9,370.1 318.2,371.5 321,374.3 C323.8,377 325.2,380.4 325.2,384.4 Z M350.4,370 L386.8,370 C390.8,370 394.1,371.4 396.9,374.2 C399.7,377 401.1,380.4 401.1,384.3 L401.1,419.6 C401.1,423.6 399.7,426.9 396.9,429.7 C394.1,432.5 390.7,433.9 386.8,433.9 L350.4,433.9 C346.4,433.9 343.1,432.5 340.3,429.7 C337.5,426.9 336.1,423.5 336.1,419.6 L336.1,384.3 C336.1,380.3 337.5,377 340.3,374.2 C343.1,371.4 346.5,370 350.4,370 Z M386.8,381.9 L350.4,381.9 C349.7,381.9 349.2,382.1 348.7,382.6 C348.2,383.1 348,383.6 348,384.3 L348,419.6 C348,420.3 348.2,420.8 348.7,421.3 C349.2,421.8 349.7,422 350.4,422 L386.8,422 C387.5,422 388,421.8 388.5,421.3 C389,420.8 389.2,420.3 389.2,419.6 L389.2,384.3 C389.2,383.6 389,383.1 388.5,382.6 C388,382.2 387.5,381.9 386.8,381.9 Z M494.3,370 C498.3,370 501.6,371.4 504.4,374.2 C507.2,377 508.6,380.4 508.6,384.3 L508.6,433.9 L496.8,433.9 L496.8,384.3 C496.8,383.6 496.6,383.1 496.1,382.6 C495.6,382.1 495,381.9 494.3,381.9 L469.1,381.9 C468.4,381.9 467.9,382.1 467.4,382.6 C466.9,383.1 466.7,383.6 466.7,384.3 L466.7,433.9 L454.8,433.9 L454.8,384.3 C454.8,383.6 454.6,383.1 454.1,382.6 C453.6,382.1 453.1,381.9 452.4,381.9 L427.1,381.9 C426.4,381.9 425.9,382.1 425.4,382.6 C424.9,383.1 424.7,383.6 424.7,384.3 L424.7,433.9 L412.8,433.9 L412.8,370 L494.3,370 Z M570.8,370 C574.8,370 578.1,371.4 580.9,374.2 C583.7,377 585.1,380.4 585.1,384.3 L585.1,407.9 L532,407.9 L532,419.6 C532,420.3 532.2,420.8 532.7,421.3 C533.2,421.8 533.7,422 534.4,422 L585.1,422 L585.1,433.9 L534.4,433.9 C530.4,433.9 527.1,432.5 524.3,429.7 C521.5,426.9 520.1,423.5 520.1,419.6 L520.1,384.3 C520.1,380.3 521.5,377 524.3,374.2 C527.1,371.4 530.5,370 534.4,370 L570.8,370 Z M532,396 L573.2,396 L573.2,384.3 C573.2,383.6 573,383.1 572.5,382.6 C572,382.1 571.5,381.9 570.8,381.9 L534.4,381.9 C533.7,381.9 533.2,382.1 532.7,382.6 C532.2,383.1 532,383.6 532,384.3 L532,396 Z" id="Shape" fill="#68B030" fill-rule="nonzero"/>
      <path d="M585,137.7 L435,0.1 L413.9,23.1 L538.9,137.7 L46.2,137.7 L171.2,23 L150.1,0 L0.1,137.7 L0,137.7 L0,228.4 C0,269.4 39.5,302.8 88,302.8 L180.5,302.8 C229,302.8 268.5,269.4 268.5,228.4 L268.5,168.8 L316.5,168.8 L316.5,228.4 C316.5,269.4 356,302.8 404.5,302.8 L497,302.8 C545.5,302.8 585,269.4 585,228.4 L585,137.7 Z" id="Path" fill="#59316B"/>
      <g id="tor" transform="translate(15.000000, 501.000000)" fill="#7D4698">
        <path d="M500,100 L500,93.3323732 C521.173234,93.271384 538.317255,76.1349891 538.317255,54.9992377 C538.317255,33.865011 521.173234,16.7286157 500,16.6676267 L500,10 C524.86464,10.0625138 545,30.1827977 545,54.9992377 C545,79.8172023 524.86464,99.9390109 500,100 Z M500,77.2935768 C511.818693,77.2306847 521.384981,67.5008479 521.384981,55.4992331 C521.384981,43.4991524 511.818693,33.7693157 500,33.7064238 L500,27 C515.473366,27.061358 528,39.7946662 528,55.4992331 C528,71.2053341 515.473366,83.9386426 500,84 L500,77.2935768 Z M499,44 C505.63658,44.0601425 511,49.182781 511,55.4992483 C511,61.8172194 505.63658,66.939858 499,67 L499,44 Z M444,54.9984753 C444,85.3754782 468.846843,110 499.5,110 C530.151619,110 555,85.3754782 555,54.9984753 C555,24.6229972 530.151619,0 499.5,0 C468.846843,0 444,24.6229972 444,54.9984753 Z" id="tor-glyph"/>
        <path d="M0,83.5714286 L0,47.1428571 L11.5536105,35.7142857 L34.9015317,35.7142857 L43.8074398,43.452381 L43.8074398,10 L55,10 L55,95 L44.2888403,95 L44.2888403,84.7619048 L33.9387309,95 L11.5536105,95 L0,83.5714286 Z M31.5461255,85 L43,73.3333333 L43,54.1666667 L32.7269373,45 L16.4317343,45 L11,50.4761905 L11,79.5238095 L16.4317343,85 L31.5461255,85 Z M69,84.9297189 L69,70.3574297 L79.261959,60.2871486 L110.892938,60.2871486 L110.892938,50.3353414 L105.580866,45.2409639 L85.9020501,45.2409639 L80.7107062,50.3353414 L80.7107062,54.7188755 L69.4829157,54.7188755 L69.4829157,47.4919679 L81.1936219,36 L110.289294,36 L122,47.4919679 L122,95 L111.496583,95 L111.496583,85.2851406 L101.113895,95 L79.261959,95 L69,84.9297189 Z M99.8976378,86 L111,75.2253521 L111,69 L85.1338583,69 L81,73.1901408 L81,81.9295775 L85.1338583,86 L99.8976378,86 Z M138,36 L148.691558,36 L148.691558,46.3072289 L159.022727,36 L175,36 L175,45.5963855 L161.545455,45.5963855 L149.172078,57.9176707 L149.172078,95 L138,95 L138,36 Z M186,10 L197.086093,10 L197.086093,59.2857143 L209.84106,59.2857143 L226.529801,35.7142857 L238.807947,35.7142857 L218.900662,64.2857143 L240,95 L227.721854,95 L209.721854,69.047619 L197.086093,69.047619 L197.086093,95 L186,95 L186,10 Z M250,36 L260.696145,36 L260.696145,47.6104418 L272.473923,36 L291.222222,36 L303,47.6104418 L303,95 L291.823129,95 L291.823129,50.9277108 L286.414966,45.5963855 L274.997732,45.5963855 L261.176871,59.2208835 L261.176871,95 L250,95 L250,36 Z M318,83.7449799 L318,47.373494 L329.443709,36 L360.556291,36 L372,47.373494 L372,68.935743 L329.086093,68.935743 L329.086093,80.3092369 L334.331126,85.5220884 L355.668874,85.5220884 L360.913907,80.4277108 L360.913907,76.3995984 L371.880795,76.3995984 L371.880795,83.7449799 L360.675497,95 L329.324503,95 L318,83.7449799 Z M361,60 L361,50.28 L355.606742,45 L334.393258,45 L329,50.28 L329,60 L361,60 Z M392.650888,83.6287879 L392.650888,44.9666667 L382,44.9666667 L382,35.3909091 L392.887574,35.3909091 L392.887574,16 L403.656805,16 L403.656805,35.3909091 L422,35.3909091 L422,45.0863636 L403.656805,45.0863636 L403.656805,80.0378788 L408.982249,85.3045455 L422,85.3045455 L422,95 L404.011834,95 L392.650888,83.6287879 Z" id="darknet"/>
      </g>
    </g>
  </g>
</svg>